<svg width="16" height="13" viewBox="0 0 16 13" fill="none" xmlns="http://www.w3.org/2000/svg">
<path d="M0.916687 6.62492C0.916687 7.08325 1.29169 7.45825 1.75002 7.45825H12.1917L8.67502 10.9749C8.33335 11.3166 8.33335 11.8666 8.67502 12.2083C9.01669 12.5499 9.56669 12.5499 9.90835 12.2083L14.8334 7.29158C15.0167 7.10825 15.1 6.86659 15.0834 6.63325C15.0917 6.39992 15.0084 6.15825 14.8334 5.97492L9.90835 1.05825C9.56669 0.716585 9.01669 0.716585 8.67502 1.05825C8.33335 1.39992 8.33335 1.94992 8.67502 2.29159L12.1917 5.79158H1.75002C1.29169 5.79158 0.916687 6.16658 0.916687 6.62492Z" fill="white"/>
</svg>
